<svg xmlns="http://www.w3.org/2000/svg" viewBox="0 0 1200 630">
  <defs>
    <linearGradient id="bg" x1="0%" y1="0%" x2="100%" y2="100%">
      <stop offset="0%" stop-color="#0f172a"/>
      <stop offset="100%" stop-color="#1e3a5f"/>
    </linearGradient>
    <linearGradient id="accent" x1="0%" y1="0%" x2="100%" y2="100%">
      <stop offset="0%" stop-color="#3b82f6"/>
      <stop offset="100%" stop-color="#06b6d4"/>
    </linearGradient>
    <pattern id="dots" width="40" height="40" patternUnits="userSpaceOnUse">
      <circle cx="20" cy="20" r="1" fill="white" opacity="0.04"/>
    </pattern>
  </defs>

  <!-- Background -->
  <rect width="1200" height="630" fill="url(#bg)"/>
  <rect width="1200" height="630" fill="url(#dots)"/>

  <!-- Decorative background circles -->
  <circle cx="600" cy="315" r="300" fill="white" opacity="0.03"/>
  <circle cx="600" cy="315" r="240" fill="white" opacity="0.025"/>
  <circle cx="250" cy="350" r="160" fill="white" opacity="0.04"/>
  <circle cx="950" cy="280" r="160" fill="white" opacity="0.04"/>
  <circle cx="600" cy="315" r="180" fill="white" opacity="0.02"/>

  <!-- Grid of small lock icons - LEFT side -->
  <!-- Row 1 -->
  <rect x="120" y="220" width="12" height="10" rx="2" fill="url(#accent)" opacity="0.2"/>
  <path d="M123,220 L123,216 Q123,212 126,212 Q129,212 129,216 L129,220" fill="none" stroke="url(#accent)" stroke-width="1.2" opacity="0.2"/>
  <rect x="160" y="220" width="12" height="10" rx="2" fill="url(#accent)" opacity="0.25"/>
  <path d="M163,220 L163,216 Q163,212 166,212 Q169,212 169,216 L169,220" fill="none" stroke="url(#accent)" stroke-width="1.2" opacity="0.25"/>
  <rect x="200" y="220" width="12" height="10" rx="2" fill="url(#accent)" opacity="0.2"/>
  <path d="M203,220 L203,216 Q203,212 206,212 Q209,212 209,216 L209,220" fill="none" stroke="url(#accent)" stroke-width="1.2" opacity="0.2"/>
  <!-- Row 2 -->
  <rect x="120" y="260" width="12" height="10" rx="2" fill="url(#accent)" opacity="0.22"/>
  <path d="M123,260 L123,256 Q123,252 126,252 Q129,252 129,256 L129,260" fill="none" stroke="url(#accent)" stroke-width="1.2" opacity="0.22"/>
  <rect x="160" y="260" width="12" height="10" rx="2" fill="url(#accent)" opacity="0.18"/>
  <path d="M163,260 L163,256 Q163,252 166,252 Q169,252 169,256 L169,260" fill="none" stroke="url(#accent)" stroke-width="1.2" opacity="0.18"/>
  <rect x="200" y="260" width="12" height="10" rx="2" fill="url(#accent)" opacity="0.25"/>
  <path d="M203,260 L203,256 Q203,252 206,252 Q209,252 209,256 L209,260" fill="none" stroke="url(#accent)" stroke-width="1.2" opacity="0.25"/>
  <!-- Row 3 -->
  <rect x="120" y="300" width="12" height="10" rx="2" fill="url(#accent)" opacity="0.2"/>
  <path d="M123,300 L123,296 Q123,292 126,292 Q129,292 129,296 L129,300" fill="none" stroke="url(#accent)" stroke-width="1.2" opacity="0.2"/>
  <rect x="160" y="300" width="12" height="10" rx="2" fill="url(#accent)" opacity="0.23"/>
  <path d="M163,300 L163,296 Q163,292 166,292 Q169,292 169,296 L169,300" fill="none" stroke="url(#accent)" stroke-width="1.2" opacity="0.23"/>
  <rect x="200" y="300" width="12" height="10" rx="2" fill="url(#accent)" opacity="0.18"/>
  <path d="M203,300 L203,296 Q203,292 206,292 Q209,292 209,296 L209,300" fill="none" stroke="url(#accent)" stroke-width="1.2" opacity="0.18"/>
  <!-- Row 4 -->
  <rect x="120" y="340" width="12" height="10" rx="2" fill="url(#accent)" opacity="0.18"/>
  <path d="M123,340 L123,336 Q123,332 126,332 Q129,332 129,336 L129,340" fill="none" stroke="url(#accent)" stroke-width="1.2" opacity="0.18"/>
  <rect x="160" y="340" width="12" height="10" rx="2" fill="url(#accent)" opacity="0.2"/>
  <path d="M163,340 L163,336 Q163,332 166,332 Q169,332 169,336 L169,340" fill="none" stroke="url(#accent)" stroke-width="1.2" opacity="0.2"/>
  <rect x="200" y="340" width="12" height="10" rx="2" fill="url(#accent)" opacity="0.22"/>
  <path d="M203,340 L203,336 Q203,332 206,332 Q209,332 209,336 L209,340" fill="none" stroke="url(#accent)" stroke-width="1.2" opacity="0.22"/>
  <!-- Row 5 -->
  <rect x="120" y="380" width="12" height="10" rx="2" fill="url(#accent)" opacity="0.2"/>
  <path d="M123,380 L123,376 Q123,372 126,372 Q129,372 129,376 L129,380" fill="none" stroke="url(#accent)" stroke-width="1.2" opacity="0.2"/>
  <rect x="160" y="380" width="12" height="10" rx="2" fill="url(#accent)" opacity="0.18"/>
  <path d="M163,380 L163,376 Q163,372 166,372 Q169,372 169,376 L169,380" fill="none" stroke="url(#accent)" stroke-width="1.2" opacity="0.18"/>
  <rect x="200" y="380" width="12" height="10" rx="2" fill="url(#accent)" opacity="0.2"/>
  <path d="M203,380 L203,376 Q203,372 206,372 Q209,372 209,376 L209,380" fill="none" stroke="url(#accent)" stroke-width="1.2" opacity="0.2"/>

  <!-- Grid of small lock icons - RIGHT side -->
  <!-- Row 1 -->
  <rect x="988" y="220" width="12" height="10" rx="2" fill="url(#accent)" opacity="0.2"/>
  <path d="M991,220 L991,216 Q991,212 994,212 Q997,212 997,216 L997,220" fill="none" stroke="url(#accent)" stroke-width="1.2" opacity="0.2"/>
  <rect x="1028" y="220" width="12" height="10" rx="2" fill="url(#accent)" opacity="0.25"/>
  <path d="M1031,220 L1031,216 Q1031,212 1034,212 Q1037,212 1037,216 L1037,220" fill="none" stroke="url(#accent)" stroke-width="1.2" opacity="0.25"/>
  <rect x="1068" y="220" width="12" height="10" rx="2" fill="url(#accent)" opacity="0.2"/>
  <path d="M1071,220 L1071,216 Q1071,212 1074,212 Q1077,212 1077,216 L1077,220" fill="none" stroke="url(#accent)" stroke-width="1.2" opacity="0.2"/>
  <!-- Row 2 -->
  <rect x="988" y="260" width="12" height="10" rx="2" fill="url(#accent)" opacity="0.22"/>
  <path d="M991,260 L991,256 Q991,252 994,252 Q997,252 997,256 L997,260" fill="none" stroke="url(#accent)" stroke-width="1.2" opacity="0.22"/>
  <rect x="1028" y="260" width="12" height="10" rx="2" fill="url(#accent)" opacity="0.18"/>
  <path d="M1031,260 L1031,256 Q1031,252 1034,252 Q1037,252 1037,256 L1037,260" fill="none" stroke="url(#accent)" stroke-width="1.2" opacity="0.18"/>
  <rect x="1068" y="260" width="12" height="10" rx="2" fill="url(#accent)" opacity="0.25"/>
  <path d="M1071,260 L1071,256 Q1071,252 1074,252 Q1077,252 1077,256 L1077,260" fill="none" stroke="url(#accent)" stroke-width="1.2" opacity="0.25"/>
  <!-- Row 3 -->
  <rect x="988" y="300" width="12" height="10" rx="2" fill="url(#accent)" opacity="0.2"/>
  <path d="M991,300 L991,296 Q991,292 994,292 Q997,292 997,296 L997,300" fill="none" stroke="url(#accent)" stroke-width="1.2" opacity="0.2"/>
  <rect x="1028" y="300" width="12" height="10" rx="2" fill="url(#accent)" opacity="0.23"/>
  <path d="M1031,300 L1031,296 Q1031,292 1034,292 Q1037,292 1037,296 L1037,300" fill="none" stroke="url(#accent)" stroke-width="1.2" opacity="0.23"/>
  <rect x="1068" y="300" width="12" height="10" rx="2" fill="url(#accent)" opacity="0.18"/>
  <path d="M1071,300 L1071,296 Q1071,292 1074,292 Q1077,292 1077,296 L1077,300" fill="none" stroke="url(#accent)" stroke-width="1.2" opacity="0.18"/>
  <!-- Row 4 -->
  <rect x="988" y="340" width="12" height="10" rx="2" fill="url(#accent)" opacity="0.18"/>
  <path d="M991,340 L991,336 Q991,332 994,332 Q997,332 997,336 L997,340" fill="none" stroke="url(#accent)" stroke-width="1.2" opacity="0.18"/>
  <rect x="1028" y="340" width="12" height="10" rx="2" fill="url(#accent)" opacity="0.2"/>
  <path d="M1031,340 L1031,336 Q1031,332 1034,332 Q1037,332 1037,336 L1037,340" fill="none" stroke="url(#accent)" stroke-width="1.2" opacity="0.2"/>
  <rect x="1068" y="340" width="12" height="10" rx="2" fill="url(#accent)" opacity="0.22"/>
  <path d="M1071,340 L1071,336 Q1071,332 1074,332 Q1077,332 1077,336 L1077,340" fill="none" stroke="url(#accent)" stroke-width="1.2" opacity="0.22"/>
  <!-- Row 5 -->
  <rect x="988" y="380" width="12" height="10" rx="2" fill="url(#accent)" opacity="0.2"/>
  <path d="M991,380 L991,376 Q991,372 994,372 Q997,372 997,376 L997,380" fill="none" stroke="url(#accent)" stroke-width="1.2" opacity="0.2"/>
  <rect x="1028" y="380" width="12" height="10" rx="2" fill="url(#accent)" opacity="0.18"/>
  <path d="M1031,380 L1031,376 Q1031,372 1034,372 Q1037,372 1037,376 L1037,380" fill="none" stroke="url(#accent)" stroke-width="1.2" opacity="0.18"/>
  <rect x="1068" y="380" width="12" height="10" rx="2" fill="url(#accent)" opacity="0.2"/>
  <path d="M1071,380 L1071,376 Q1071,372 1074,372 Q1077,372 1077,376 L1077,380" fill="none" stroke="url(#accent)" stroke-width="1.2" opacity="0.2"/>

  <!-- Password dots row -->
  <rect x="415" y="425" width="350" height="30" rx="6" fill="none" stroke="url(#accent)" stroke-width="1.5" opacity="0.25"/>
  <circle cx="430" cy="440" r="8" fill="url(#accent)" opacity="0.35"/>
  <circle cx="470" cy="440" r="8" fill="url(#accent)" opacity="0.4"/>
  <circle cx="510" cy="440" r="8" fill="url(#accent)" opacity="0.45"/>
  <circle cx="550" cy="440" r="8" fill="url(#accent)" opacity="0.5"/>
  <circle cx="590" cy="440" r="8" fill="url(#accent)" opacity="0.5"/>
  <circle cx="630" cy="440" r="8" fill="url(#accent)" opacity="0.5"/>
  <circle cx="670" cy="440" r="8" fill="url(#accent)" opacity="0.45"/>
  <circle cx="710" cy="440" r="8" fill="url(#accent)" opacity="0.4"/>
  <circle cx="750" cy="440" r="8" fill="url(#accent)" opacity="0.35"/>

  <!-- Key shape - LEFT of vault -->
  <circle cx="340" cy="310" r="22" fill="none" stroke="url(#accent)" stroke-width="2.5" opacity="0.5"/>
  <circle cx="340" cy="310" r="10" fill="none" stroke="url(#accent)" stroke-width="1.5" opacity="0.3"/>
  <line x1="362" y1="310" x2="435" y2="310" stroke="url(#accent)" stroke-width="2.5" opacity="0.5"/>
  <line x1="420" y1="310" x2="420" y2="325" stroke="url(#accent)" stroke-width="2.5" opacity="0.5" stroke-linecap="round"/>
  <line x1="405" y1="310" x2="405" y2="322" stroke="url(#accent)" stroke-width="2" opacity="0.4" stroke-linecap="round"/>
  <line x1="435" y1="310" x2="435" y2="320" stroke="url(#accent)" stroke-width="2" opacity="0.4" stroke-linecap="round"/>

  <!-- Lock with keyhole - RIGHT of vault -->
  <rect x="770" y="295" width="42" height="35" rx="5" fill="none" stroke="url(#accent)" stroke-width="2" opacity="0.45"/>
  <rect x="772" y="297" width="38" height="31" rx="4" fill="url(#accent)" opacity="0.08"/>
  <path d="M780,295 L780,280 Q780,265 791,265 Q802,265 802,280 L802,295" fill="none" stroke="url(#accent)" stroke-width="3" stroke-linecap="round" opacity="0.5"/>
  <circle cx="791" cy="308" r="5" fill="url(#accent)" opacity="0.5"/>
  <rect x="789" y="308" width="4" height="12" rx="1.5" fill="url(#accent)" opacity="0.5"/>

  <!-- MAIN VAULT DOOR - center -->
  <circle cx="600" cy="305" r="120" fill="none" stroke="url(#accent)" stroke-width="3" opacity="0.6"/>
  <circle cx="600" cy="305" r="118" fill="url(#accent)" opacity="0.06"/>
  <circle cx="600" cy="305" r="100" fill="none" stroke="url(#accent)" stroke-width="2" opacity="0.35"/>
  <circle cx="600" cy="305" r="80" fill="none" stroke="url(#accent)" stroke-width="1.5" opacity="0.25"/>

  <!-- Vault cross lines -->
  <line x1="600" y1="230" x2="600" y2="380" stroke="url(#accent)" stroke-width="2" opacity="0.2"/>
  <line x1="525" y1="305" x2="675" y2="305" stroke="url(#accent)" stroke-width="2" opacity="0.2"/>
  <line x1="540" y1="245" x2="660" y2="365" stroke="url(#accent)" stroke-width="1" opacity="0.12"/>
  <line x1="660" y1="245" x2="540" y2="365" stroke="url(#accent)" stroke-width="1" opacity="0.12"/>

  <!-- Vault handle wheel -->
  <circle cx="600" cy="305" r="50" fill="none" stroke="url(#accent)" stroke-width="2.5" opacity="0.5"/>
  <!-- Handle nubs -->
  <circle cx="600" cy="255" r="8" fill="url(#accent)" opacity="0.5"/>
  <circle cx="600" cy="355" r="8" fill="url(#accent)" opacity="0.5"/>
  <circle cx="550" cy="305" r="8" fill="url(#accent)" opacity="0.5"/>
  <circle cx="650" cy="305" r="8" fill="url(#accent)" opacity="0.5"/>

  <!-- Center keyhole -->
  <circle cx="600" cy="305" r="18" fill="url(#bg)" stroke="url(#accent)" stroke-width="2" opacity="0.8"/>
  <circle cx="600" cy="300" r="6" fill="url(#accent)" opacity="0.6"/>
  <rect x="597" y="300" width="6" height="16" rx="2" fill="url(#accent)" opacity="0.5"/>

  <!-- Vault bolt marks -->
  <circle cx="510" cy="215" r="5" fill="url(#accent)" opacity="0.25"/>
  <circle cx="690" cy="215" r="5" fill="url(#accent)" opacity="0.25"/>
  <circle cx="510" cy="395" r="5" fill="url(#accent)" opacity="0.25"/>
  <circle cx="690" cy="395" r="5" fill="url(#accent)" opacity="0.25"/>
  <circle cx="480" cy="305" r="5" fill="url(#accent)" opacity="0.25"/>
  <circle cx="720" cy="305" r="5" fill="url(#accent)" opacity="0.25"/>
  <circle cx="490" cy="255" r="5" fill="url(#accent)" opacity="0.2"/>
  <circle cx="710" cy="255" r="5" fill="url(#accent)" opacity="0.2"/>
  <circle cx="490" cy="355" r="5" fill="url(#accent)" opacity="0.2"/>
  <circle cx="710" cy="355" r="5" fill="url(#accent)" opacity="0.2"/>

  <!-- Vault dial tick marks -->
  <line x1="600" y1="192" x2="600" y2="200" stroke="url(#accent)" stroke-width="1.5" opacity="0.3"/>
  <line x1="600" y1="410" x2="600" y2="418" stroke="url(#accent)" stroke-width="1.5" opacity="0.3"/>
  <line x1="488" y1="305" x2="480" y2="305" stroke="url(#accent)" stroke-width="1.5" opacity="0.3"/>
  <line x1="720" y1="305" x2="712" y2="305" stroke="url(#accent)" stroke-width="1.5" opacity="0.3"/>
  <line x1="625" y1="193" x2="623" y2="200" stroke="url(#accent)" stroke-width="1" opacity="0.2"/>
  <line x1="650" y1="198" x2="646" y2="205" stroke="url(#accent)" stroke-width="1" opacity="0.2"/>
  <line x1="575" y1="193" x2="577" y2="200" stroke="url(#accent)" stroke-width="1" opacity="0.2"/>
  <line x1="550" y1="198" x2="554" y2="205" stroke="url(#accent)" stroke-width="1" opacity="0.2"/>
  <line x1="670" y1="210" x2="665" y2="216" stroke="url(#accent)" stroke-width="1" opacity="0.2"/>
  <line x1="530" y1="210" x2="535" y2="216" stroke="url(#accent)" stroke-width="1" opacity="0.2"/>

  <!-- Connection lines -->
  <line x1="362" y1="310" x2="480" y2="305" stroke="url(#accent)" stroke-width="1" opacity="0.1"/>
  <line x1="770" y1="312" x2="720" y2="305" stroke="url(#accent)" stroke-width="1" opacity="0.1"/>

  <!-- Glow -->
  <circle cx="600" cy="305" r="170" fill="url(#accent)" opacity="0.04"/>
  <circle cx="600" cy="305" r="130" fill="url(#accent)" opacity="0.03"/>
</svg>