<svg xmlns="http://www.w3.org/2000/svg" viewBox="0 0 1200 630">
  <defs>
    <linearGradient id="bg" x1="0%" y1="0%" x2="100%" y2="100%">
      <stop offset="0%" stop-color="#0f172a"/>
      <stop offset="100%" stop-color="#1e3a5f"/>
    </linearGradient>
    <linearGradient id="accent" x1="0%" y1="0%" x2="100%" y2="100%">
      <stop offset="0%" stop-color="#3b82f6"/>
      <stop offset="100%" stop-color="#06b6d4"/>
    </linearGradient>
    <pattern id="dots" width="40" height="40" patternUnits="userSpaceOnUse">
      <circle cx="20" cy="20" r="1" fill="white" opacity="0.04"/>
    </pattern>
  </defs>

  <!-- Background -->
  <rect width="1200" height="630" fill="url(#bg)"/>
  <rect width="1200" height="630" fill="url(#dots)"/>

  <!-- Decorative background circles -->
  <circle cx="600" cy="315" r="280" fill="white" opacity="0.03"/>
  <circle cx="200" cy="300" r="180" fill="white" opacity="0.04"/>
  <circle cx="1000" cy="350" r="180" fill="white" opacity="0.04"/>
  <circle cx="600" cy="315" r="200" fill="white" opacity="0.025"/>

  <!-- Data stream dots - LEFT columns -->
  <circle cx="160" cy="200" r="2" fill="url(#accent)" opacity="0.3"/>
  <circle cx="160" cy="225" r="2.5" fill="url(#accent)" opacity="0.4"/>
  <circle cx="160" cy="250" r="2" fill="url(#accent)" opacity="0.35"/>
  <circle cx="160" cy="275" r="3" fill="url(#accent)" opacity="0.5"/>
  <circle cx="160" cy="300" r="2" fill="url(#accent)" opacity="0.3"/>
  <circle cx="160" cy="325" r="2.5" fill="url(#accent)" opacity="0.45"/>
  <circle cx="160" cy="350" r="2" fill="url(#accent)" opacity="0.35"/>
  <circle cx="160" cy="375" r="3" fill="url(#accent)" opacity="0.4"/>
  <circle cx="160" cy="400" r="2" fill="url(#accent)" opacity="0.3"/>
  <circle cx="160" cy="425" r="2.5" fill="url(#accent)" opacity="0.35"/>

  <circle cx="200" cy="210" r="2.5" fill="url(#accent)" opacity="0.35"/>
  <circle cx="200" cy="240" r="2" fill="url(#accent)" opacity="0.3"/>
  <circle cx="200" cy="270" r="3" fill="url(#accent)" opacity="0.45"/>
  <circle cx="200" cy="300" r="2" fill="url(#accent)" opacity="0.35"/>
  <circle cx="200" cy="330" r="2.5" fill="url(#accent)" opacity="0.4"/>
  <circle cx="200" cy="360" r="2" fill="url(#accent)" opacity="0.3"/>
  <circle cx="200" cy="390" r="3" fill="url(#accent)" opacity="0.45"/>
  <circle cx="200" cy="420" r="2" fill="url(#accent)" opacity="0.3"/>

  <circle cx="240" cy="220" r="2" fill="url(#accent)" opacity="0.3"/>
  <circle cx="240" cy="250" r="2.5" fill="url(#accent)" opacity="0.4"/>
  <circle cx="240" cy="280" r="2" fill="url(#accent)" opacity="0.35"/>
  <circle cx="240" cy="310" r="3" fill="url(#accent)" opacity="0.45"/>
  <circle cx="240" cy="340" r="2" fill="url(#accent)" opacity="0.3"/>
  <circle cx="240" cy="370" r="2.5" fill="url(#accent)" opacity="0.4"/>
  <circle cx="240" cy="400" r="2" fill="url(#accent)" opacity="0.35"/>

  <!-- Data stream dots - RIGHT columns -->
  <circle cx="960" cy="200" r="2" fill="url(#accent)" opacity="0.3"/>
  <circle cx="960" cy="225" r="2.5" fill="url(#accent)" opacity="0.4"/>
  <circle cx="960" cy="250" r="2" fill="url(#accent)" opacity="0.35"/>
  <circle cx="960" cy="275" r="3" fill="url(#accent)" opacity="0.5"/>
  <circle cx="960" cy="300" r="2" fill="url(#accent)" opacity="0.3"/>
  <circle cx="960" cy="325" r="2.5" fill="url(#accent)" opacity="0.45"/>
  <circle cx="960" cy="350" r="2" fill="url(#accent)" opacity="0.35"/>
  <circle cx="960" cy="375" r="3" fill="url(#accent)" opacity="0.4"/>
  <circle cx="960" cy="400" r="2" fill="url(#accent)" opacity="0.3"/>
  <circle cx="960" cy="425" r="2.5" fill="url(#accent)" opacity="0.35"/>

  <circle cx="1000" cy="215" r="2.5" fill="url(#accent)" opacity="0.35"/>
  <circle cx="1000" cy="245" r="2" fill="url(#accent)" opacity="0.3"/>
  <circle cx="1000" cy="275" r="3" fill="url(#accent)" opacity="0.45"/>
  <circle cx="1000" cy="305" r="2" fill="url(#accent)" opacity="0.35"/>
  <circle cx="1000" cy="335" r="2.5" fill="url(#accent)" opacity="0.4"/>
  <circle cx="1000" cy="365" r="2" fill="url(#accent)" opacity="0.3"/>
  <circle cx="1000" cy="395" r="3" fill="url(#accent)" opacity="0.45"/>
  <circle cx="1000" cy="425" r="2" fill="url(#accent)" opacity="0.3"/>

  <circle cx="1040" cy="205" r="2" fill="url(#accent)" opacity="0.3"/>
  <circle cx="1040" cy="235" r="2.5" fill="url(#accent)" opacity="0.4"/>
  <circle cx="1040" cy="265" r="2" fill="url(#accent)" opacity="0.35"/>
  <circle cx="1040" cy="295" r="3" fill="url(#accent)" opacity="0.45"/>
  <circle cx="1040" cy="325" r="2" fill="url(#accent)" opacity="0.3"/>
  <circle cx="1040" cy="355" r="2.5" fill="url(#accent)" opacity="0.4"/>
  <circle cx="1040" cy="385" r="2" fill="url(#accent)" opacity="0.35"/>
  <circle cx="1040" cy="415" r="2.5" fill="url(#accent)" opacity="0.3"/>

  <!-- Fingerprint pattern - left of center -->
  <circle cx="380" cy="315" r="60" fill="none" stroke="url(#accent)" stroke-width="1" opacity="0.15"/>
  <circle cx="380" cy="315" r="50" fill="none" stroke="url(#accent)" stroke-width="1" opacity="0.13"/>
  <circle cx="380" cy="315" r="40" fill="none" stroke="url(#accent)" stroke-width="1" opacity="0.12"/>
  <circle cx="380" cy="315" r="30" fill="none" stroke="url(#accent)" stroke-width="1" opacity="0.1"/>
  <circle cx="380" cy="315" r="20" fill="none" stroke="url(#accent)" stroke-width="1" opacity="0.1"/>
  <!-- Fingerprint arcs -->
  <path d="M360,280 Q380,260 400,280" fill="none" stroke="url(#accent)" stroke-width="1.5" opacity="0.2"/>
  <path d="M350,290 Q380,265 410,290" fill="none" stroke="url(#accent)" stroke-width="1.5" opacity="0.18"/>
  <path d="M345,305 Q380,275 415,305" fill="none" stroke="url(#accent)" stroke-width="1.5" opacity="0.16"/>
  <path d="M345,320 Q380,290 415,320" fill="none" stroke="url(#accent)" stroke-width="1.5" opacity="0.15"/>
  <path d="M350,335 Q380,305 410,335" fill="none" stroke="url(#accent)" stroke-width="1.5" opacity="0.14"/>
  <path d="M355,345 Q380,320 405,345" fill="none" stroke="url(#accent)" stroke-width="1.5" opacity="0.13"/>
  <path d="M360,352 Q380,335 400,352" fill="none" stroke="url(#accent)" stroke-width="1.5" opacity="0.12"/>

  <!-- Browser window with shield - right of center -->
  <rect x="780" y="240" width="160" height="140" rx="8" fill="none" stroke="url(#accent)" stroke-width="1.5" opacity="0.35"/>
  <line x1="780" y1="262" x2="940" y2="262" stroke="url(#accent)" stroke-width="1" opacity="0.25"/>
  <circle cx="798" cy="251" r="4" fill="url(#accent)" opacity="0.3"/>
  <circle cx="812" cy="251" r="4" fill="url(#accent)" opacity="0.25"/>
  <circle cx="826" cy="251" r="4" fill="url(#accent)" opacity="0.2"/>
  <rect x="840" y="247" width="90" height="9" rx="3" fill="white" opacity="0.08"/>
  <!-- Shield in browser -->
  <path d="M860,285 L895,300 L895,340 Q895,365 860,375 Q825,365 825,340 L825,300 Z" fill="none" stroke="url(#accent)" stroke-width="2" opacity="0.5"/>
  <path d="M860,293 L889,305 L889,338 Q889,358 860,367 Q831,358 831,338 L831,305 Z" fill="url(#accent)" opacity="0.1"/>
  <path d="M845,330 L856,342 L878,315" fill="none" stroke="url(#accent)" stroke-width="2.5" stroke-linecap="round" stroke-linejoin="round" opacity="0.5"/>

  <!-- MAIN EYE - center -->
  <path d="M440,315 Q520,220 600,220 Q680,220 760,315 Q680,410 600,410 Q520,410 440,315 Z" fill="none" stroke="url(#accent)" stroke-width="3" opacity="0.7"/>
  <path d="M450,315 Q525,228 600,228 Q675,228 750,315 Q675,402 600,402 Q525,402 450,315 Z" fill="url(#accent)" opacity="0.05"/>
  <path d="M465,315 Q535,240 600,240 Q665,240 735,315 Q665,390 600,390 Q535,390 465,315 Z" fill="none" stroke="url(#accent)" stroke-width="1.5" opacity="0.3"/>

  <!-- Iris -->
  <circle cx="600" cy="315" r="55" fill="none" stroke="url(#accent)" stroke-width="2.5" opacity="0.6"/>
  <circle cx="600" cy="315" r="55" fill="url(#accent)" opacity="0.08"/>
  <!-- Pupil -->
  <circle cx="600" cy="315" r="30" fill="url(#accent)" opacity="0.15"/>
  <circle cx="600" cy="315" r="18" fill="url(#accent)" opacity="0.2"/>

  <!-- Iris detail lines -->
  <line x1="600" y1="260" x2="600" y2="275" stroke="url(#accent)" stroke-width="1" opacity="0.2"/>
  <line x1="600" y1="355" x2="600" y2="370" stroke="url(#accent)" stroke-width="1" opacity="0.2"/>
  <line x1="545" y1="315" x2="560" y2="315" stroke="url(#accent)" stroke-width="1" opacity="0.2"/>
  <line x1="640" y1="315" x2="655" y2="315" stroke="url(#accent)" stroke-width="1" opacity="0.2"/>
  <line x1="561" y1="277" x2="571" y2="287" stroke="url(#accent)" stroke-width="1" opacity="0.15"/>
  <line x1="639" y1="277" x2="629" y2="287" stroke="url(#accent)" stroke-width="1" opacity="0.15"/>
  <line x1="561" y1="353" x2="571" y2="343" stroke="url(#accent)" stroke-width="1" opacity="0.15"/>
  <line x1="639" y1="353" x2="629" y2="343" stroke="url(#accent)" stroke-width="1" opacity="0.15"/>

  <!-- Padlock over pupil -->
  <rect x="583" y="310" width="34" height="28" rx="4" fill="url(#accent)" opacity="0.85"/>
  <path d="M590,310 L590,298 Q590,282 600,282 Q610,282 610,298 L610,310" fill="none" stroke="url(#accent)" stroke-width="4" stroke-linecap="round" opacity="0.95"/>
  <circle cx="600" cy="322" r="5" fill="#0f172a" opacity="0.9"/>
  <rect x="598" y="322" width="4" height="9" rx="1.5" fill="#0f172a" opacity="0.9"/>

  <!-- Eye light reflection -->
  <circle cx="615" cy="300" r="8" fill="white" opacity="0.12"/>
  <circle cx="622" cy="294" r="4" fill="white" opacity="0.08"/>

  <!-- Connecting lines -->
  <line x1="445" y1="295" x2="410" y2="290" stroke="url(#accent)" stroke-width="1" opacity="0.15"/>
  <line x1="445" y1="335" x2="410" y2="340" stroke="url(#accent)" stroke-width="1" opacity="0.15"/>
  <line x1="755" y1="295" x2="790" y2="290" stroke="url(#accent)" stroke-width="1" opacity="0.15"/>
  <line x1="755" y1="335" x2="790" y2="340" stroke="url(#accent)" stroke-width="1" opacity="0.15"/>

  <!-- Small lock icons -->
  <rect x="120" y="270" width="14" height="11" rx="2" fill="url(#accent)" opacity="0.2"/>
  <path d="M123,270 L123,265 Q123,260 127,260 Q131,260 131,265 L131,270" fill="none" stroke="url(#accent)" stroke-width="1.5" opacity="0.2"/>

  <rect x="1070" y="280" width="14" height="11" rx="2" fill="url(#accent)" opacity="0.2"/>
  <path d="M1073,280 L1073,275 Q1073,270 1077,270 Q1081,270 1081,275 L1081,280" fill="none" stroke="url(#accent)" stroke-width="1.5" opacity="0.2"/>

  <!-- Small eye icons -->
  <path d="M130,400 Q145,390 160,400 Q145,410 130,400 Z" fill="none" stroke="url(#accent)" stroke-width="1" opacity="0.2"/>
  <circle cx="145" cy="400" r="3" fill="url(#accent)" opacity="0.2"/>

  <path d="M1040,400 Q1055,390 1070,400 Q1055,410 1040,400 Z" fill="none" stroke="url(#accent)" stroke-width="1" opacity="0.2"/>
  <circle cx="1055" cy="400" r="3" fill="url(#accent)" opacity="0.2"/>

  <!-- Glow -->
  <circle cx="600" cy="315" r="160" fill="url(#accent)" opacity="0.04"/>
  <circle cx="600" cy="315" r="100" fill="url(#accent)" opacity="0.03"/>
</svg>