<svg xmlns="http://www.w3.org/2000/svg" viewBox="0 0 1200 630">
  <defs>
    <linearGradient id="bg" x1="0%" y1="0%" x2="100%" y2="100%">
      <stop offset="0%" stop-color="#0f172a"/>
      <stop offset="100%" stop-color="#1e3a5f"/>
    </linearGradient>
    <linearGradient id="accent" x1="0%" y1="0%" x2="100%" y2="100%">
      <stop offset="0%" stop-color="#3b82f6"/>
      <stop offset="100%" stop-color="#06b6d4"/>
    </linearGradient>
    <pattern id="dots" width="40" height="40" patternUnits="userSpaceOnUse">
      <circle cx="20" cy="20" r="1" fill="white" opacity="0.04"/>
    </pattern>
  </defs>

  <!-- Background -->
  <rect width="1200" height="630" fill="url(#bg)"/>
  <rect width="1200" height="630" fill="url(#dots)"/>

  <!-- Decorative background circles -->
  <circle cx="200" cy="315" r="220" fill="white" opacity="0.04"/>
  <circle cx="1000" cy="315" r="220" fill="white" opacity="0.04"/>
  <circle cx="600" cy="315" r="320" fill="white" opacity="0.03"/>
  <circle cx="150" cy="200" r="80" fill="white" opacity="0.05"/>
  <circle cx="1050" cy="450" r="100" fill="white" opacity="0.04"/>

  <!-- Network connection lines from globe to shield -->
  <line x1="200" y1="315" x2="480" y2="280" stroke="url(#accent)" stroke-width="1.5" opacity="0.2"/>
  <line x1="200" y1="315" x2="480" y2="350" stroke="url(#accent)" stroke-width="1.5" opacity="0.2"/>
  <line x1="200" y1="315" x2="480" y2="315" stroke="url(#accent)" stroke-width="1.5" opacity="0.25"/>
  <line x1="720" y1="280" x2="1000" y2="315" stroke="url(#accent)" stroke-width="1.5" opacity="0.2"/>
  <line x1="720" y1="350" x2="1000" y2="315" stroke="url(#accent)" stroke-width="1.5" opacity="0.2"/>
  <line x1="720" y1="315" x2="1000" y2="315" stroke="url(#accent)" stroke-width="1.5" opacity="0.25"/>

  <!-- Encrypted data dots flowing left side -->
  <circle cx="280" cy="305" r="3" fill="url(#accent)" opacity="0.5"/>
  <circle cx="330" cy="295" r="2.5" fill="url(#accent)" opacity="0.4"/>
  <circle cx="380" cy="288" r="3" fill="url(#accent)" opacity="0.6"/>
  <circle cx="430" cy="283" r="2" fill="url(#accent)" opacity="0.3"/>
  <circle cx="300" cy="315" r="2" fill="url(#accent)" opacity="0.4"/>
  <circle cx="360" cy="315" r="3" fill="url(#accent)" opacity="0.5"/>
  <circle cx="420" cy="315" r="2.5" fill="url(#accent)" opacity="0.35"/>
  <circle cx="310" cy="330" r="2.5" fill="url(#accent)" opacity="0.45"/>
  <circle cx="370" cy="340" r="3" fill="url(#accent)" opacity="0.5"/>
  <circle cx="430" cy="345" r="2" fill="url(#accent)" opacity="0.3"/>

  <!-- Encrypted data dots flowing right side -->
  <circle cx="780" cy="290" r="3" fill="url(#accent)" opacity="0.5"/>
  <circle cx="830" cy="298" r="2.5" fill="url(#accent)" opacity="0.4"/>
  <circle cx="880" cy="305" r="3" fill="url(#accent)" opacity="0.6"/>
  <circle cx="930" cy="310" r="2" fill="url(#accent)" opacity="0.3"/>
  <circle cx="770" cy="315" r="2" fill="url(#accent)" opacity="0.4"/>
  <circle cx="840" cy="315" r="3" fill="url(#accent)" opacity="0.5"/>
  <circle cx="900" cy="315" r="2.5" fill="url(#accent)" opacity="0.35"/>
  <circle cx="790" cy="340" r="2.5" fill="url(#accent)" opacity="0.45"/>
  <circle cx="850" cy="335" r="3" fill="url(#accent)" opacity="0.5"/>
  <circle cx="920" cy="325" r="2" fill="url(#accent)" opacity="0.3"/>

  <!-- Globe - left side -->
  <circle cx="200" cy="315" r="75" fill="none" stroke="url(#accent)" stroke-width="2" opacity="0.5"/>
  <ellipse cx="200" cy="315" rx="75" ry="30" fill="none" stroke="url(#accent)" stroke-width="1" opacity="0.3"/>
  <ellipse cx="200" cy="315" rx="75" ry="55" fill="none" stroke="url(#accent)" stroke-width="1" opacity="0.25"/>
  <ellipse cx="200" cy="315" rx="30" ry="75" fill="none" stroke="url(#accent)" stroke-width="1" opacity="0.3"/>
  <ellipse cx="200" cy="315" rx="55" ry="75" fill="none" stroke="url(#accent)" stroke-width="1" opacity="0.25"/>
  <line x1="200" y1="240" x2="200" y2="390" stroke="url(#accent)" stroke-width="1" opacity="0.3"/>
  <line x1="125" y1="315" x2="275" y2="315" stroke="url(#accent)" stroke-width="1" opacity="0.3"/>
  <circle cx="200" cy="260" r="3" fill="url(#accent)" opacity="0.6"/>
  <circle cx="200" cy="370" r="3" fill="url(#accent)" opacity="0.6"/>
  <circle cx="145" cy="315" r="3" fill="url(#accent)" opacity="0.6"/>
  <circle cx="255" cy="315" r="3" fill="url(#accent)" opacity="0.6"/>

  <!-- Server rack - right side -->
  <rect x="960" y="240" width="80" height="35" rx="4" fill="none" stroke="url(#accent)" stroke-width="1.5" opacity="0.5"/>
  <circle cx="980" cy="257" r="4" fill="url(#accent)" opacity="0.6"/>
  <line x1="995" y1="250" x2="1025" y2="250" stroke="white" stroke-width="1.5" opacity="0.2"/>
  <line x1="995" y1="257" x2="1020" y2="257" stroke="white" stroke-width="1.5" opacity="0.15"/>
  <line x1="995" y1="264" x2="1015" y2="264" stroke="white" stroke-width="1.5" opacity="0.1"/>

  <rect x="960" y="285" width="80" height="35" rx="4" fill="none" stroke="url(#accent)" stroke-width="1.5" opacity="0.5"/>
  <circle cx="980" cy="302" r="4" fill="url(#accent)" opacity="0.7"/>
  <line x1="995" y1="295" x2="1025" y2="295" stroke="white" stroke-width="1.5" opacity="0.2"/>
  <line x1="995" y1="302" x2="1020" y2="302" stroke="white" stroke-width="1.5" opacity="0.15"/>
  <line x1="995" y1="309" x2="1015" y2="309" stroke="white" stroke-width="1.5" opacity="0.1"/>

  <rect x="960" y="330" width="80" height="35" rx="4" fill="none" stroke="url(#accent)" stroke-width="1.5" opacity="0.5"/>
  <circle cx="980" cy="347" r="4" fill="url(#accent)" opacity="0.5"/>
  <line x1="995" y1="340" x2="1025" y2="340" stroke="white" stroke-width="1.5" opacity="0.2"/>
  <line x1="995" y1="347" x2="1020" y2="347" stroke="white" stroke-width="1.5" opacity="0.15"/>
  <line x1="995" y1="354" x2="1015" y2="354" stroke="white" stroke-width="1.5" opacity="0.1"/>

  <rect x="960" y="375" width="80" height="35" rx="4" fill="none" stroke="url(#accent)" stroke-width="1.5" opacity="0.4"/>
  <circle cx="980" cy="392" r="4" fill="url(#accent)" opacity="0.4"/>
  <line x1="995" y1="385" x2="1025" y2="385" stroke="white" stroke-width="1.5" opacity="0.15"/>
  <line x1="995" y1="392" x2="1020" y2="392" stroke="white" stroke-width="1.5" opacity="0.1"/>

  <!-- Tunnel visualization circles -->
  <circle cx="470" cy="315" r="45" fill="none" stroke="url(#accent)" stroke-width="2" opacity="0.3"/>
  <circle cx="470" cy="315" r="30" fill="none" stroke="url(#accent)" stroke-width="1.5" opacity="0.2"/>
  <circle cx="730" cy="315" r="45" fill="none" stroke="url(#accent)" stroke-width="2" opacity="0.3"/>
  <circle cx="730" cy="315" r="30" fill="none" stroke="url(#accent)" stroke-width="1.5" opacity="0.2"/>

  <!-- Tunnel connecting lines -->
  <line x1="470" y1="270" x2="730" y2="270" stroke="url(#accent)" stroke-width="1" opacity="0.15"/>
  <line x1="470" y1="360" x2="730" y2="360" stroke="url(#accent)" stroke-width="1" opacity="0.15"/>
  <line x1="470" y1="285" x2="730" y2="285" stroke="url(#accent)" stroke-width="0.8" opacity="0.1"/>
  <line x1="470" y1="345" x2="730" y2="345" stroke="url(#accent)" stroke-width="0.8" opacity="0.1"/>

  <!-- Central Shield -->
  <path d="M600,190 L710,235 L710,370 Q710,440 600,475 Q490,440 490,370 L490,235 Z" fill="url(#bg)" stroke="url(#accent)" stroke-width="3"/>
  <path d="M600,205 L698,245 L698,365 Q698,430 600,462 Q502,430 502,365 L502,245 Z" fill="url(#accent)" opacity="0.08"/>
  <path d="M600,205 L698,245 L698,365 Q698,430 600,462 Q502,430 502,365 L502,245 Z" fill="none" stroke="url(#accent)" stroke-width="1.5" opacity="0.3"/>

  <!-- Lock body on shield -->
  <rect x="572" y="310" width="56" height="45" rx="6" fill="url(#accent)" opacity="0.8"/>
  <!-- Lock shackle -->
  <path d="M582,310 L582,290 Q582,265 600,265 Q618,265 618,290 L618,310" fill="none" stroke="url(#accent)" stroke-width="5" stroke-linecap="round" opacity="0.9"/>
  <!-- Keyhole -->
  <circle cx="600" cy="328" r="7" fill="#0f172a" opacity="0.8"/>
  <rect x="597" y="328" width="6" height="14" rx="2" fill="#0f172a" opacity="0.8"/>

  <!-- Shield accent lines -->
  <path d="M600,200 L690,240" stroke="white" stroke-width="1" opacity="0.15"/>
  <path d="M600,200 L510,240" stroke="white" stroke-width="1" opacity="0.15"/>

  <!-- Tunnel entry/exit nodes -->
  <circle cx="470" cy="315" r="5" fill="url(#accent)" opacity="0.6"/>
  <circle cx="730" cy="315" r="5" fill="url(#accent)" opacity="0.6"/>

  <!-- Small decorative locks -->
  <rect x="130" y="195" width="16" height="13" rx="2" fill="url(#accent)" opacity="0.3"/>
  <path d="M134,195 L134,189 Q134,183 138,183 Q142,183 142,189 L142,195" fill="none" stroke="url(#accent)" stroke-width="1.5" opacity="0.3"/>

  <rect x="1060" y="200" width="16" height="13" rx="2" fill="url(#accent)" opacity="0.3"/>
  <path d="M1064,200 L1064,194 Q1064,188 1068,188 Q1072,188 1072,194 L1072,200" fill="none" stroke="url(#accent)" stroke-width="1.5" opacity="0.3"/>

  <rect x="100" y="420" width="16" height="13" rx="2" fill="url(#accent)" opacity="0.25"/>
  <path d="M104,420 L104,414 Q104,408 108,408 Q112,408 112,414 L112,420" fill="none" stroke="url(#accent)" stroke-width="1.5" opacity="0.25"/>

  <rect x="1080" y="400" width="16" height="13" rx="2" fill="url(#accent)" opacity="0.25"/>
  <path d="M1084,400 L1084,394 Q1084,388 1088,388 Q1092,388 1092,394 L1092,400" fill="none" stroke="url(#accent)" stroke-width="1.5" opacity="0.25"/>

  <!-- Glow behind shield -->
  <circle cx="600" cy="340" r="150" fill="url(#accent)" opacity="0.04"/>
  <circle cx="600" cy="340" r="100" fill="url(#accent)" opacity="0.03"/>
</svg>