<svg xmlns="http://www.w3.org/2000/svg" viewBox="0 0 1200 630" fill="none">
  <defs>
    <linearGradient id="bg" x1="0%" y1="0%" x2="100%" y2="100%">
      <stop offset="0%" style="stop-color:#0f172a"/>
      <stop offset="100%" style="stop-color:#1e3a5f"/>
    </linearGradient>
    <linearGradient id="accent" x1="0%" y1="0%" x2="100%" y2="100%">
      <stop offset="0%" style="stop-color:#3b82f6"/>
      <stop offset="100%" style="stop-color:#06b6d4"/>
    </linearGradient>
  </defs>
  <rect width="1200" height="630" fill="url(#bg)"/>
  <!-- Grid pattern -->
  <g opacity="0.05" stroke="#fff" stroke-width="1">
    <line x1="0" y1="0" x2="0" y2="630"/><line x1="60" y1="0" x2="60" y2="630"/>
    <line x1="120" y1="0" x2="120" y2="630"/><line x1="180" y1="0" x2="180" y2="630"/>
    <line x1="240" y1="0" x2="240" y2="630"/><line x1="300" y1="0" x2="300" y2="630"/>
    <line x1="360" y1="0" x2="360" y2="630"/><line x1="420" y1="0" x2="420" y2="630"/>
    <line x1="480" y1="0" x2="480" y2="630"/><line x1="540" y1="0" x2="540" y2="630"/>
    <line x1="600" y1="0" x2="600" y2="630"/><line x1="660" y1="0" x2="660" y2="630"/>
    <line x1="720" y1="0" x2="720" y2="630"/><line x1="780" y1="0" x2="780" y2="630"/>
    <line x1="840" y1="0" x2="840" y2="630"/><line x1="900" y1="0" x2="900" y2="630"/>
    <line x1="960" y1="0" x2="960" y2="630"/><line x1="1020" y1="0" x2="1020" y2="630"/>
    <line x1="1080" y1="0" x2="1080" y2="630"/><line x1="1140" y1="0" x2="1140" y2="630"/>
    <line x1="0" y1="60" x2="1200" y2="60"/><line x1="0" y1="120" x2="1200" y2="120"/>
    <line x1="0" y1="180" x2="1200" y2="180"/><line x1="0" y1="240" x2="1200" y2="240"/>
    <line x1="0" y1="300" x2="1200" y2="300"/><line x1="0" y1="360" x2="1200" y2="360"/>
    <line x1="0" y1="420" x2="1200" y2="420"/><line x1="0" y1="480" x2="1200" y2="480"/>
    <line x1="0" y1="540" x2="1200" y2="540"/>
  </g>
  <!-- Globe icon -->
  <circle cx="600" cy="260" r="100" stroke="url(#accent)" stroke-width="3" fill="none" opacity="0.8"/>
  <ellipse cx="600" cy="260" rx="50" ry="100" stroke="url(#accent)" stroke-width="2" fill="none" opacity="0.6"/>
  <line x1="500" y1="260" x2="700" y2="260" stroke="url(#accent)" stroke-width="2" opacity="0.6"/>
  <line x1="520" y1="200" x2="680" y2="200" stroke="url(#accent)" stroke-width="2" opacity="0.4"/>
  <line x1="520" y1="320" x2="680" y2="320" stroke="url(#accent)" stroke-width="2" opacity="0.4"/>
  <!-- Shield overlay -->
  <path d="M600 170 L660 200 L660 290 C660 330 600 370 600 370 C600 370 540 330 540 290 L540 200 Z" stroke="url(#accent)" stroke-width="3" fill="url(#accent)" fill-opacity="0.15"/>
  <!-- Lock icon inside shield -->
  <rect x="582" y="255" width="36" height="28" rx="4" stroke="#3b82f6" stroke-width="2.5" fill="none"/>
  <path d="M590 255 L590 242 C590 234 600 226 600 226 C600 226 610 234 610 242 L610 255" stroke="#3b82f6" stroke-width="2.5" fill="none"/>
  <circle cx="600" cy="268" r="4" fill="#3b82f6"/>
  <!-- Connection lines -->
  <g stroke="url(#accent)" stroke-width="1.5" opacity="0.3">
    <line x1="460" y1="200" x2="380" y2="150"/>
    <circle cx="375" cy="147" r="6" fill="#3b82f6" opacity="0.5"/>
    <line x1="740" y1="200" x2="820" y2="150"/>
    <circle cx="825" cy="147" r="6" fill="#06b6d4" opacity="0.5"/>
    <line x1="460" y1="320" x2="380" y2="370"/>
    <circle cx="375" cy="373" r="6" fill="#06b6d4" opacity="0.5"/>
    <line x1="740" y1="320" x2="820" y2="370"/>
    <circle cx="825" cy="373" r="6" fill="#3b82f6" opacity="0.5"/>
  </g>
  <!-- Text -->
  <text x="600" y="440" font-family="system-ui, -apple-system, sans-serif" font-size="28" font-weight="700" fill="#fff" text-anchor="middle" letter-spacing="2">VPN &amp; PRIVACY</text>
  <text x="600" y="475" font-family="system-ui, -apple-system, sans-serif" font-size="16" fill="#94a3b8" text-anchor="middle" letter-spacing="4">DIGITAL SHIELD PRO</text>
</svg>